<mxfile host="app.diagrams.net" agent="Mozilla/5.0 (X11; Ubuntu; Linux x86_64; rv:139.0) Gecko/20100101 Firefox/139.0" version="27.1.3">
  <diagram name="Page-1" id="I-lq6YLUThv6dxfTA4IS">
    <mxGraphModel dx="2066" dy="1186" grid="1" gridSize="10" guides="1" tooltips="1" connect="1" arrows="1" fold="1" page="1" pageScale="1" pageWidth="850" pageHeight="1100" math="0" shadow="0">
      <root>
        <mxCell id="0" />
        <mxCell id="1" parent="0" />
        <mxCell id="cvJpNaN4AxF_znYrUF_U-1" value="&lt;b&gt;DNA preprocessing&lt;/b&gt;" style="swimlane;html=1;fontStyle=0;childLayout=stackLayout;horizontal=1;startSize=26;fillColor=#e0e0e0;horizontalStack=0;resizeParent=1;resizeLast=0;collapsible=1;marginBottom=0;swimlaneFillColor=#ffffff;align=center;rounded=1;shadow=1;comic=0;labelBackgroundColor=none;strokeWidth=2;fontFamily=Verdana;fontSize=12;sketch=1;curveFitting=1;jiggle=2;" parent="1" vertex="1">
          <mxGeometry x="160" y="130" width="200" height="170" as="geometry" />
        </mxCell>
        <mxCell id="cvJpNaN4AxF_znYrUF_U-2" value="Adapter Removal (fastp)" style="text;html=1;strokeColor=none;fillColor=none;spacingLeft=4;spacingRight=4;whiteSpace=wrap;overflow=hidden;rotatable=0;points=[[0,0.5],[1,0.5]];portConstraint=eastwest;align=center;" parent="cvJpNaN4AxF_znYrUF_U-1" vertex="1">
          <mxGeometry y="26" width="200" height="26" as="geometry" />
        </mxCell>
        <mxCell id="cvJpNaN4AxF_znYrUF_U-3" value="Quality Trimming" style="text;html=1;strokeColor=none;fillColor=none;spacingLeft=4;spacingRight=4;whiteSpace=wrap;overflow=hidden;rotatable=0;points=[[0,0.5],[1,0.5]];portConstraint=eastwest;align=center;" parent="cvJpNaN4AxF_znYrUF_U-1" vertex="1">
          <mxGeometry y="52" width="200" height="26" as="geometry" />
        </mxCell>
        <mxCell id="cvJpNaN4AxF_znYrUF_U-4" value="Quality filtering" style="text;html=1;strokeColor=none;fillColor=none;spacingLeft=4;spacingRight=4;whiteSpace=wrap;overflow=hidden;rotatable=0;points=[[0,0.5],[1,0.5]];portConstraint=eastwest;align=center;" parent="cvJpNaN4AxF_znYrUF_U-1" vertex="1">
          <mxGeometry y="78" width="200" height="26" as="geometry" />
        </mxCell>
        <mxCell id="cvJpNaN4AxF_znYrUF_U-5" value="Evaluation (fastqc)" style="text;html=1;strokeColor=none;fillColor=none;spacingLeft=4;spacingRight=4;whiteSpace=wrap;overflow=hidden;rotatable=0;points=[[0,0.5],[1,0.5]];portConstraint=eastwest;align=center;" parent="cvJpNaN4AxF_znYrUF_U-1" vertex="1">
          <mxGeometry y="104" width="200" height="26" as="geometry" />
        </mxCell>
        <mxCell id="cvJpNaN4AxF_znYrUF_U-6" value="Assign Taxonomy to reads (Kraken)" style="text;html=1;strokeColor=none;fillColor=none;spacingLeft=4;spacingRight=4;whiteSpace=wrap;overflow=hidden;rotatable=0;points=[[0,0.5],[1,0.5]];portConstraint=eastwest;align=center;" parent="cvJpNaN4AxF_znYrUF_U-1" vertex="1">
          <mxGeometry y="130" width="200" height="30" as="geometry" />
        </mxCell>
        <mxCell id="cvJpNaN4AxF_znYrUF_U-8" value="&lt;b&gt;Genome Reconstruction&lt;/b&gt;" style="swimlane;html=1;fontStyle=0;childLayout=stackLayout;horizontal=1;startSize=26;fillColor=#e0e0e0;horizontalStack=0;resizeParent=1;resizeLast=0;collapsible=1;marginBottom=0;swimlaneFillColor=#ffffff;align=center;rounded=1;shadow=1;comic=0;labelBackgroundColor=none;strokeWidth=2;fontFamily=Verdana;fontSize=12;sketch=1;curveFitting=1;jiggle=2;glass=1;" parent="1" vertex="1">
          <mxGeometry x="150" y="380" width="210" height="130" as="geometry" />
        </mxCell>
        <mxCell id="cvJpNaN4AxF_znYrUF_U-9" value="Assembly (MEGAHIT)" style="text;html=1;strokeColor=none;fillColor=none;spacingLeft=4;spacingRight=4;whiteSpace=wrap;overflow=hidden;rotatable=0;points=[[0,0.5],[1,0.5]];portConstraint=eastwest;align=center;" parent="cvJpNaN4AxF_znYrUF_U-8" vertex="1">
          <mxGeometry y="26" width="210" height="26" as="geometry" />
        </mxCell>
        <mxCell id="cvJpNaN4AxF_znYrUF_U-10" value="Binning (MetaBAT)" style="text;html=1;strokeColor=none;fillColor=none;spacingLeft=4;spacingRight=4;whiteSpace=wrap;overflow=hidden;rotatable=0;points=[[0,0.5],[1,0.5]];portConstraint=eastwest;align=center;" parent="cvJpNaN4AxF_znYrUF_U-8" vertex="1">
          <mxGeometry y="52" width="210" height="26" as="geometry" />
        </mxCell>
        <mxCell id="cvJpNaN4AxF_znYrUF_U-11" value="Refinement (DAS)" style="text;html=1;strokeColor=none;fillColor=none;spacingLeft=4;spacingRight=4;whiteSpace=wrap;overflow=hidden;rotatable=0;points=[[0,0.5],[1,0.5]];portConstraint=eastwest;align=center;" parent="cvJpNaN4AxF_znYrUF_U-8" vertex="1">
          <mxGeometry y="78" width="210" height="26" as="geometry" />
        </mxCell>
        <mxCell id="cvJpNaN4AxF_znYrUF_U-12" value="&lt;div&gt;Evaluation - Normalization (QUAST)&lt;/div&gt;&lt;div&gt;&lt;br&gt;&lt;/div&gt;&lt;div&gt;&lt;br&gt;&lt;/div&gt;" style="text;html=1;strokeColor=none;fillColor=none;spacingLeft=4;spacingRight=4;whiteSpace=wrap;overflow=hidden;rotatable=0;points=[[0,0.5],[1,0.5]];portConstraint=eastwest;align=center;" parent="cvJpNaN4AxF_znYrUF_U-8" vertex="1">
          <mxGeometry y="104" width="210" height="26" as="geometry" />
        </mxCell>
        <mxCell id="cvJpNaN4AxF_znYrUF_U-18" value="&lt;b&gt;Host genome removal&lt;/b&gt; (bowtie)" style="swimlane;html=1;fontStyle=0;childLayout=stackLayout;horizontal=1;startSize=26;fillColor=#e0e0e0;horizontalStack=0;resizeParent=1;resizeLast=0;collapsible=1;marginBottom=0;swimlaneFillColor=#ffffff;align=center;rounded=1;shadow=1;comic=0;labelBackgroundColor=none;strokeWidth=2;fontFamily=Verdana;fontSize=12;sketch=1;curveFitting=1;jiggle=2;glass=0;" parent="1" vertex="1">
          <mxGeometry x="485" y="170" width="220" height="110" as="geometry">
            <mxRectangle x="460" y="140" width="220" height="30" as="alternateBounds" />
          </mxGeometry>
        </mxCell>
        <mxCell id="cvJpNaN4AxF_znYrUF_U-19" value="Honeybee" style="text;html=1;strokeColor=none;fillColor=none;spacingLeft=4;spacingRight=4;whiteSpace=wrap;overflow=hidden;rotatable=0;points=[[0,0.5],[1,0.5]];portConstraint=eastwest;align=center;" parent="cvJpNaN4AxF_znYrUF_U-18" vertex="1">
          <mxGeometry y="26" width="220" height="26" as="geometry" />
        </mxCell>
        <mxCell id="cvJpNaN4AxF_znYrUF_U-20" value="Contaminant (Human)" style="text;html=1;strokeColor=none;fillColor=none;spacingLeft=4;spacingRight=4;whiteSpace=wrap;overflow=hidden;rotatable=0;points=[[0,0.5],[1,0.5]];portConstraint=eastwest;align=center;" parent="cvJpNaN4AxF_znYrUF_U-18" vertex="1">
          <mxGeometry y="52" width="220" height="26" as="geometry" />
        </mxCell>
        <mxCell id="cvJpNaN4AxF_znYrUF_U-21" value="&lt;b&gt;Bee metagenome&lt;/b&gt;" style="swimlane;html=1;fontStyle=0;childLayout=stackLayout;horizontal=1;startSize=26;fillColor=#e0e0e0;horizontalStack=0;resizeParent=1;resizeLast=0;collapsible=1;marginBottom=0;swimlaneFillColor=#ffffff;align=center;rounded=1;shadow=1;comic=0;labelBackgroundColor=none;strokeWidth=2;fontFamily=Verdana;fontSize=12;sketch=1;curveFitting=1;jiggle=2;" parent="1" vertex="1">
          <mxGeometry x="505" y="371" width="230" height="120" as="geometry" />
        </mxCell>
        <mxCell id="cvJpNaN4AxF_znYrUF_U-22" value="Domain classification (tiara)" style="text;html=1;strokeColor=none;fillColor=none;spacingLeft=4;spacingRight=4;whiteSpace=wrap;overflow=hidden;rotatable=0;points=[[0,0.5],[1,0.5]];portConstraint=eastwest;align=center;" parent="cvJpNaN4AxF_znYrUF_U-21" vertex="1">
          <mxGeometry y="26" width="230" height="26" as="geometry" />
        </mxCell>
        <mxCell id="cvJpNaN4AxF_znYrUF_U-23" value="Taxonomic classification (gGTDB-Tk)" style="text;html=1;strokeColor=none;fillColor=none;spacingLeft=4;spacingRight=4;whiteSpace=wrap;overflow=hidden;rotatable=0;points=[[0,0.5],[1,0.5]];portConstraint=eastwest;align=center;" parent="cvJpNaN4AxF_znYrUF_U-21" vertex="1">
          <mxGeometry y="52" width="230" height="26" as="geometry" />
        </mxCell>
        <mxCell id="cvJpNaN4AxF_znYrUF_U-24" value="Genome annotation (PROKKA)" style="text;html=1;strokeColor=none;fillColor=none;spacingLeft=4;spacingRight=4;whiteSpace=wrap;overflow=hidden;rotatable=0;points=[[0,0.5],[1,0.5]];portConstraint=eastwest;align=center;" parent="cvJpNaN4AxF_znYrUF_U-21" vertex="1">
          <mxGeometry y="78" width="230" height="26" as="geometry" />
        </mxCell>
        <mxCell id="cvJpNaN4AxF_znYrUF_U-25" style="edgeStyle=orthogonalEdgeStyle;html=1;labelBackgroundColor=none;startFill=0;endFill=1;fontFamily=Verdana;fontSize=12;shape=flexArrow;strokeWidth=2;sketch=1;curveFitting=1;jiggle=2;shadow=1;" parent="1" source="cvJpNaN4AxF_znYrUF_U-1" target="cvJpNaN4AxF_znYrUF_U-8" edge="1">
          <mxGeometry relative="1" as="geometry">
            <Array as="points">
              <mxPoint x="275" y="280" />
              <mxPoint x="275" y="280" />
            </Array>
          </mxGeometry>
        </mxCell>
        <mxCell id="cvJpNaN4AxF_znYrUF_U-26" value="Non-bee DNA" style="edgeLabel;html=1;align=center;verticalAlign=middle;resizable=0;points=[];fontStyle=1;fontSize=12;" parent="cvJpNaN4AxF_znYrUF_U-25" vertex="1" connectable="0">
          <mxGeometry x="-0.2" y="-3" relative="1" as="geometry">
            <mxPoint as="offset" />
          </mxGeometry>
        </mxCell>
        <mxCell id="cvJpNaN4AxF_znYrUF_U-27" style="edgeStyle=orthogonalEdgeStyle;html=1;labelBackgroundColor=none;startFill=1;endFill=1;fontFamily=Verdana;fontSize=12;exitX=0;exitY=0.5;exitDx=0;exitDy=0;startArrow=classic;entryX=1;entryY=0.25;entryDx=0;entryDy=0;labelBorderColor=default;shape=flexArrow;strokeWidth=2;shadow=1;sketch=1;curveFitting=1;jiggle=2;" parent="1" source="cvJpNaN4AxF_znYrUF_U-48" target="cvJpNaN4AxF_znYrUF_U-18" edge="1">
          <mxGeometry relative="1" as="geometry">
            <mxPoint x="725" y="220" as="sourcePoint" />
          </mxGeometry>
        </mxCell>
        <mxCell id="cvJpNaN4AxF_znYrUF_U-28" style="edgeStyle=orthogonalEdgeStyle;html=1;exitX=1;exitY=0.5;entryX=0;entryY=0.25;labelBackgroundColor=none;startFill=0;endFill=1;fontFamily=Verdana;fontSize=12;entryDx=0;entryDy=0;shape=flexArrow;strokeWidth=2;shadow=1;sketch=1;curveFitting=1;jiggle=2;flowAnimation=0;" parent="1" source="cvJpNaN4AxF_znYrUF_U-6" target="cvJpNaN4AxF_znYrUF_U-18" edge="1">
          <mxGeometry relative="1" as="geometry" />
        </mxCell>
        <mxCell id="cvJpNaN4AxF_znYrUF_U-29" value="Text" style="edgeLabel;html=1;align=center;verticalAlign=middle;resizable=0;points=[];" parent="cvJpNaN4AxF_znYrUF_U-28" vertex="1" connectable="0">
          <mxGeometry x="-0.0787" y="1" relative="1" as="geometry">
            <mxPoint as="offset" />
          </mxGeometry>
        </mxCell>
        <mxCell id="cvJpNaN4AxF_znYrUF_U-30" value="&lt;div&gt;Extraction of&amp;nbsp;&lt;/div&gt;&lt;div&gt;bee genome&lt;/div&gt;" style="edgeLabel;html=1;align=center;verticalAlign=middle;resizable=0;points=[];fontStyle=1;fontSize=12;rotation=-30;" parent="cvJpNaN4AxF_znYrUF_U-28" vertex="1" connectable="0">
          <mxGeometry x="-0.0674" y="-2" relative="1" as="geometry">
            <mxPoint x="-9" y="-2" as="offset" />
          </mxGeometry>
        </mxCell>
        <mxCell id="cvJpNaN4AxF_znYrUF_U-31" style="edgeStyle=orthogonalEdgeStyle;html=1;labelBackgroundColor=none;startFill=1;endFill=1;fontFamily=Verdana;fontSize=12;startArrow=blockThin;shape=flexArrow;strokeWidth=2;sketch=1;curveFitting=1;jiggle=2;shadow=1;" parent="1" source="cvJpNaN4AxF_znYrUF_U-24" target="cvJpNaN4AxF_znYrUF_U-38" edge="1">
          <mxGeometry relative="1" as="geometry">
            <mxPoint x="915" y="570" as="targetPoint" />
            <mxPoint x="755" y="630" as="sourcePoint" />
          </mxGeometry>
        </mxCell>
        <mxCell id="cvJpNaN4AxF_znYrUF_U-32" value="&lt;div&gt;Mapping of non-bee RNA&amp;nbsp;&lt;/div&gt;&lt;div&gt;to non-bee MAGs&lt;/div&gt;" style="edgeLabel;html=1;align=center;verticalAlign=middle;resizable=0;points=[];rotation=30;fontStyle=1;labelBackgroundColor=default;labelBorderColor=none;fontSize=12;" parent="cvJpNaN4AxF_znYrUF_U-31" vertex="1" connectable="0">
          <mxGeometry relative="1" as="geometry">
            <mxPoint x="1" y="1" as="offset" />
          </mxGeometry>
        </mxCell>
        <mxCell id="cvJpNaN4AxF_znYrUF_U-33" style="edgeStyle=orthogonalEdgeStyle;html=1;exitX=0.5;exitY=1;labelBackgroundColor=none;startFill=0;endFill=1;fontFamily=Verdana;fontSize=12;exitDx=0;exitDy=0;entryX=0.5;entryY=0;entryDx=0;entryDy=0;shape=flexArrow;strokeWidth=2;shadow=1;sketch=1;curveFitting=1;jiggle=2;" parent="1" source="cvJpNaN4AxF_znYrUF_U-44" target="cvJpNaN4AxF_znYrUF_U-37" edge="1">
          <mxGeometry relative="1" as="geometry">
            <mxPoint x="1005" y="350" as="targetPoint" />
            <Array as="points" />
            <mxPoint x="845" y="350" as="sourcePoint" />
          </mxGeometry>
        </mxCell>
        <mxCell id="cvJpNaN4AxF_znYrUF_U-34" value="Non-bee RNA" style="edgeLabel;html=1;align=center;verticalAlign=middle;resizable=0;points=[];fontStyle=1;fontSize=12;" parent="cvJpNaN4AxF_znYrUF_U-33" vertex="1" connectable="0">
          <mxGeometry x="-0.2973" y="3" relative="1" as="geometry">
            <mxPoint x="-14" y="-22" as="offset" />
          </mxGeometry>
        </mxCell>
        <mxCell id="cvJpNaN4AxF_znYrUF_U-35" style="edgeStyle=orthogonalEdgeStyle;rounded=1;orthogonalLoop=1;jettySize=auto;html=1;entryX=0.5;entryY=0;entryDx=0;entryDy=0;shape=flexArrow;shadow=1;sketch=1;curveFitting=1;jiggle=2;strokeWidth=2;" parent="1" source="cvJpNaN4AxF_znYrUF_U-36" target="cvJpNaN4AxF_znYrUF_U-1" edge="1">
          <mxGeometry relative="1" as="geometry">
            <mxPoint x="275" y="90" as="targetPoint" />
          </mxGeometry>
        </mxCell>
        <mxCell id="cvJpNaN4AxF_znYrUF_U-36" value="&lt;div&gt;SLT&amp;nbsp;&lt;/div&gt;&lt;div&gt;DNA&amp;nbsp; reads&lt;/div&gt;" style="shape=card;whiteSpace=wrap;html=1;sketch=1;curveFitting=1;jiggle=2;shadow=1;strokeWidth=2;" parent="1" vertex="1">
          <mxGeometry x="55" y="40" width="80" height="100" as="geometry" />
        </mxCell>
        <mxCell id="cvJpNaN4AxF_znYrUF_U-37" value="&lt;b&gt;RNA mapping&lt;/b&gt;" style="swimlane;html=1;fontStyle=0;childLayout=stackLayout;horizontal=1;startSize=26;fillColor=#e0e0e0;horizontalStack=0;resizeParent=1;resizeLast=0;collapsible=1;marginBottom=0;swimlaneFillColor=#ffffff;align=center;rounded=1;shadow=1;comic=0;labelBackgroundColor=none;strokeWidth=2;fontFamily=Verdana;fontSize=12;sketch=1;curveFitting=1;jiggle=2;" parent="1" vertex="1">
          <mxGeometry x="925" y="380" width="190" height="120" as="geometry" />
        </mxCell>
        <mxCell id="cvJpNaN4AxF_znYrUF_U-38" value="Alignment (STAR)" style="text;html=1;strokeColor=none;fillColor=none;spacingLeft=4;spacingRight=4;whiteSpace=wrap;overflow=hidden;rotatable=0;points=[[0,0.5],[1,0.5]];portConstraint=eastwest;align=center;" parent="cvJpNaN4AxF_znYrUF_U-37" vertex="1">
          <mxGeometry y="26" width="190" height="26" as="geometry" />
        </mxCell>
        <mxCell id="cvJpNaN4AxF_znYrUF_U-39" value="Quantification (salmon)" style="text;html=1;strokeColor=none;fillColor=none;spacingLeft=4;spacingRight=4;whiteSpace=wrap;overflow=hidden;rotatable=0;points=[[0,0.5],[1,0.5]];portConstraint=eastwest;align=center;" parent="cvJpNaN4AxF_znYrUF_U-37" vertex="1">
          <mxGeometry y="52" width="190" height="26" as="geometry" />
        </mxCell>
        <mxCell id="cvJpNaN4AxF_znYrUF_U-40" value="Transcript assembly + Quantification" style="text;html=1;strokeColor=none;fillColor=none;spacingLeft=4;spacingRight=4;whiteSpace=wrap;overflow=hidden;rotatable=0;points=[[0,0.5],[1,0.5]];portConstraint=eastwest;align=center;" parent="cvJpNaN4AxF_znYrUF_U-37" vertex="1">
          <mxGeometry y="78" width="190" height="42" as="geometry" />
        </mxCell>
        <mxCell id="cvJpNaN4AxF_znYrUF_U-44" value="&lt;b&gt;RNA preprocessing&lt;/b&gt;" style="swimlane;html=1;fontStyle=0;childLayout=stackLayout;horizontal=1;startSize=26;fillColor=#e0e0e0;horizontalStack=0;resizeParent=1;resizeLast=0;collapsible=1;marginBottom=0;swimlaneFillColor=#ffffff;align=center;rounded=1;shadow=1;comic=0;labelBackgroundColor=none;strokeWidth=2;fontFamily=Verdana;fontSize=12;sketch=1;curveFitting=1;jiggle=2;" parent="1" vertex="1">
          <mxGeometry x="835" y="130" width="200" height="140" as="geometry" />
        </mxCell>
        <mxCell id="cvJpNaN4AxF_znYrUF_U-45" value="Infer Strandedness (salmon)" style="text;html=1;strokeColor=none;fillColor=none;spacingLeft=4;spacingRight=4;whiteSpace=wrap;overflow=hidden;rotatable=0;points=[[0,0.5],[1,0.5]];portConstraint=eastwest;align=center;" parent="cvJpNaN4AxF_znYrUF_U-44" vertex="1">
          <mxGeometry y="26" width="200" height="26" as="geometry" />
        </mxCell>
        <mxCell id="cvJpNaN4AxF_znYrUF_U-46" value="Adapter Trimming (fastp)" style="text;html=1;strokeColor=none;fillColor=none;spacingLeft=4;spacingRight=4;whiteSpace=wrap;overflow=hidden;rotatable=0;points=[[0,0.5],[1,0.5]];portConstraint=eastwest;align=center;" parent="cvJpNaN4AxF_znYrUF_U-44" vertex="1">
          <mxGeometry y="52" width="200" height="26" as="geometry" />
        </mxCell>
        <mxCell id="cvJpNaN4AxF_znYrUF_U-47" value="Quality Trimming (fastp)" style="text;html=1;strokeColor=none;fillColor=none;spacingLeft=4;spacingRight=4;whiteSpace=wrap;overflow=hidden;rotatable=0;points=[[0,0.5],[1,0.5]];portConstraint=eastwest;align=center;" parent="cvJpNaN4AxF_znYrUF_U-44" vertex="1">
          <mxGeometry y="78" width="200" height="26" as="geometry" />
        </mxCell>
        <mxCell id="cvJpNaN4AxF_znYrUF_U-48" value="Genome (BBsplit)" style="text;html=1;strokeColor=none;fillColor=none;spacingLeft=4;spacingRight=4;whiteSpace=wrap;overflow=hidden;rotatable=1;points=[[0,0.5],[1,0.5]];portConstraint=eastwest;movable=1;resizable=1;deletable=1;editable=1;locked=0;connectable=1;align=center;" parent="cvJpNaN4AxF_znYrUF_U-44" vertex="1">
          <mxGeometry y="104" width="200" height="30" as="geometry" />
        </mxCell>
        <mxCell id="cvJpNaN4AxF_znYrUF_U-49" style="edgeStyle=orthogonalEdgeStyle;rounded=1;orthogonalLoop=1;jettySize=auto;html=1;entryX=0.5;entryY=0;entryDx=0;entryDy=0;exitX=0.025;exitY=0.37;exitDx=0;exitDy=0;exitPerimeter=0;shape=flexArrow;shadow=1;sketch=1;curveFitting=1;jiggle=2;strokeWidth=2;" parent="1" source="cvJpNaN4AxF_znYrUF_U-50" target="cvJpNaN4AxF_znYrUF_U-44" edge="1">
          <mxGeometry relative="1" as="geometry" />
        </mxCell>
        <mxCell id="cvJpNaN4AxF_znYrUF_U-50" value="&lt;div&gt;SLT&lt;/div&gt;&lt;div&gt;RNA&amp;nbsp; reads&lt;/div&gt;" style="shape=card;whiteSpace=wrap;html=1;sketch=1;curveFitting=1;jiggle=2;rounded=0;shadow=1;strokeWidth=2;" parent="1" vertex="1">
          <mxGeometry x="1045" y="40" width="80" height="100" as="geometry" />
        </mxCell>
        <mxCell id="cvJpNaN4AxF_znYrUF_U-56" value="" style="edgeStyle=orthogonalEdgeStyle;rounded=1;orthogonalLoop=1;jettySize=auto;html=1;entryX=0.5;entryY=0;entryDx=0;entryDy=0;exitX=0.5;exitY=1;exitDx=0;exitDy=0;shape=flexArrow;strokeWidth=2;shadow=1;sketch=1;curveFitting=1;jiggle=2;" parent="1" source="cvJpNaN4AxF_znYrUF_U-58" target="cvJpNaN4AxF_znYrUF_U-62" edge="1">
          <mxGeometry relative="1" as="geometry">
            <mxPoint x="170" y="680" as="sourcePoint" />
            <mxPoint x="165" y="791" as="targetPoint" />
            <Array as="points">
              <mxPoint x="620" y="680" />
              <mxPoint x="620" y="680" />
            </Array>
          </mxGeometry>
        </mxCell>
        <mxCell id="cvJpNaN4AxF_znYrUF_U-57" value="Mapping" style="edgeLabel;html=1;align=center;verticalAlign=middle;resizable=0;points=[];fontStyle=1;fontSize=12;" parent="cvJpNaN4AxF_znYrUF_U-56" vertex="1" connectable="0">
          <mxGeometry x="-0.275" y="3" relative="1" as="geometry">
            <mxPoint as="offset" />
          </mxGeometry>
        </mxCell>
        <mxCell id="cvJpNaN4AxF_znYrUF_U-58" value="&lt;div&gt;&lt;b&gt;Transmissible&lt;/b&gt;&lt;/div&gt;&lt;div&gt;&lt;b&gt;RNA&lt;br&gt;&lt;/b&gt;&lt;/div&gt;" style="shape=datastore;whiteSpace=wrap;html=1;strokeWidth=2;shadow=1;gradientColor=none;sketch=1;curveFitting=1;jiggle=2;fillColor=none;" parent="1" vertex="1">
          <mxGeometry x="565" y="570" width="110" height="90" as="geometry" />
        </mxCell>
        <mxCell id="cvJpNaN4AxF_znYrUF_U-59" style="edgeStyle=orthogonalEdgeStyle;rounded=1;orthogonalLoop=1;jettySize=auto;html=1;entryX=-0.019;entryY=0.108;entryDx=0;entryDy=0;entryPerimeter=0;shape=flexArrow;strokeWidth=2;shadow=1;sketch=1;curveFitting=1;jiggle=2;" parent="1" source="cvJpNaN4AxF_znYrUF_U-11" target="cvJpNaN4AxF_znYrUF_U-21" edge="1">
          <mxGeometry relative="1" as="geometry">
            <mxPoint x="515" y="406" as="targetPoint" />
          </mxGeometry>
        </mxCell>
        <mxCell id="cvJpNaN4AxF_znYrUF_U-60" value="Non-bee DNA " style="edgeLabel;html=1;align=center;verticalAlign=middle;resizable=0;points=[];rotation=-15;fontStyle=1;fontSize=12;" parent="cvJpNaN4AxF_znYrUF_U-59" vertex="1" connectable="0">
          <mxGeometry x="-0.1748" relative="1" as="geometry">
            <mxPoint x="5" y="-19" as="offset" />
          </mxGeometry>
        </mxCell>
        <mxCell id="cvJpNaN4AxF_znYrUF_U-61" value="&lt;div&gt;Filter reads against&amp;nbsp;&lt;/div&gt;&lt;div&gt;host genome&lt;/div&gt;" style="edgeLabel;html=1;align=center;verticalAlign=middle;resizable=0;points=[];rotation=-30;fontStyle=1;fontSize=12;" parent="1" vertex="1" connectable="0">
          <mxGeometry x="765" y="225" as="geometry" />
        </mxCell>
        <mxCell id="cvJpNaN4AxF_znYrUF_U-62" value="&lt;div&gt;&lt;b&gt;Royal Jelly&lt;br&gt;&lt;/b&gt;&lt;/div&gt;&lt;div&gt;&lt;b&gt;RNA&lt;br&gt;&lt;/b&gt;&lt;/div&gt;" style="shape=datastore;whiteSpace=wrap;html=1;strokeWidth=2;fillColor=none;sketch=1;curveFitting=1;jiggle=2;shadow=1;" parent="1" vertex="1">
          <mxGeometry x="565" y="730" width="110" height="100" as="geometry" />
        </mxCell>
        <mxCell id="cvJpNaN4AxF_znYrUF_U-63" style="edgeStyle=orthogonalEdgeStyle;rounded=1;orthogonalLoop=1;jettySize=auto;html=1;exitX=0.5;exitY=1;exitDx=0;exitDy=0;shape=flexArrow;strokeWidth=2;shadow=1;sketch=1;curveFitting=1;jiggle=2;" parent="1" source="cvJpNaN4AxF_znYrUF_U-21" target="cvJpNaN4AxF_znYrUF_U-58" edge="1">
          <mxGeometry relative="1" as="geometry">
            <mxPoint x="600" y="470" as="sourcePoint" />
          </mxGeometry>
        </mxCell>
        <mxCell id="cvJpNaN4AxF_znYrUF_U-64" value="Unmapped RNA" style="edgeLabel;html=1;align=center;verticalAlign=middle;resizable=0;points=[];fontStyle=1;fontSize=12;" parent="cvJpNaN4AxF_znYrUF_U-63" vertex="1" connectable="0">
          <mxGeometry x="-0.4475" y="-1" relative="1" as="geometry">
            <mxPoint as="offset" />
          </mxGeometry>
        </mxCell>
      </root>
    </mxGraphModel>
  </diagram>
</mxfile>
